<?xml version="1.0" standalone="no"?>
<!DOCTYPE svg PUBLIC "-//W3C//DTD SVG 20010904//EN"
 "http://www.w3.org/TR/2001/REC-SVG-20010904/DTD/svg10.dtd">
<svg version="1.0" xmlns="http://www.w3.org/2000/svg"
 width="280.000000pt" height="280.000000pt" viewBox="0 0 280.000000 280.000000"
 preserveAspectRatio="xMidYMid meet">
<metadata>
Created by potrace 1.14, written by Peter Selinger 2001-2017
</metadata>
<g transform="translate(0.000000,280.000000) scale(0.100000,-0.100000)"
fill="#000000" stroke="none">
<path d="M1616 2469 c-61 -68 -76 -111 -58 -163 7 -17 10 -47 7 -66 -7 -51 22
-133 59 -168 17 -17 65 -55 106 -85 l75 -55 3 36 c5 50 26 70 81 77 72 10 110
25 147 57 46 40 44 60 -8 83 -78 33 -117 64 -139 107 -12 24 -29 48 -38 54
-10 8 -16 30 -17 63 -4 116 -20 124 -44 24 -10 -43 -16 -53 -33 -54 -12 0 -34
-3 -50 -5 -38 -6 -52 31 -37 99 6 28 9 52 6 54 -2 2 -29 -24 -60 -58z"/>
<path d="M1506 2190 c-16 -36 -20 -74 -22 -200 -1 -85 -5 -165 -7 -176 -14
-57 -61 -120 -184 -245 -149 -151 -189 -205 -223 -297 -27 -73 -23 -155 9
-222 l19 -40 -21 0 c-40 0 -102 39 -129 81 -44 68 -49 167 -15 268 l15 43 -28
-27 c-99 -94 -119 -301 -39 -385 41 -43 85 -58 187 -63 53 -3 102 -12 120 -21
26 -13 71 -16 272 -16 256 0 258 0 224 48 -27 38 -67 52 -154 52 -44 0 -80 3
-80 6 0 3 11 15 24 25 96 75 85 273 -17 319 -50 22 -111 17 -152 -14 -16 -12
-36 -26 -43 -30 -23 -14 2 25 40 61 39 37 69 50 135 58 26 3 60 10 74 16 56
22 94 115 85 207 l-5 47 21 -44 c28 -61 34 -147 15 -205 -15 -44 -15 -46 4
-56 28 -15 44 -52 84 -196 42 -149 74 -215 128 -258 36 -29 46 -31 128 -34 98
-4 106 2 64 43 -17 18 -35 25 -64 25 -78 0 -107 32 -131 143 -16 75 -24 345
-11 361 27 32 50 127 47 193 -4 116 -64 210 -186 293 -63 43 -126 108 -142
148 -6 15 -13 52 -17 82 l-6 55 -19 -45z"/>
<path d="M975 696 c-79 -29 -114 -80 -112 -161 4 -95 72 -160 165 -156 92 3
152 67 152 163 0 108 -108 189 -205 154z m127 -65 c71 -79 29 -204 -72 -215
-86 -9 -149 80 -120 169 28 86 133 111 192 46z"/>
<path d="M1401 699 c-145 -31 -170 -237 -37 -306 81 -42 194 4 223 92 22 67
-6 161 -58 194 -30 18 -92 28 -128 20z m84 -43 c60 -25 86 -117 52 -183 -29
-56 -118 -77 -167 -40 -74 56 -64 187 17 223 38 17 57 17 98 0z"/>
<path d="M1811 699 c-128 -27 -166 -214 -59 -291 32 -22 101 -34 142 -24 37 9
94 62 100 94 18 82 26 74 -74 74 -88 0 -92 -1 -88 -19 2 -14 14 -16 66 -14 63
2 64 2 57 -21 -12 -39 -34 -67 -58 -73 -95 -24 -153 12 -163 101 -7 73 31 126
100 138 31 6 96 -17 96 -33 0 -16 34 -31 49 -22 30 19 -44 85 -104 93 -16 3
-45 1 -64 -3z"/>
<path d="M549 643 c-1 -57 0 -211 1 -245 0 -11 8 -18 20 -18 18 0 20 7 20 73
l0 72 68 -74 c53 -58 72 -72 91 -70 22 4 19 8 -35 68 -92 100 -91 86 -13 171
63 68 67 75 47 79 -18 2 -38 -13 -90 -70 l-68 -74 0 73 c0 65 -2 72 -20 72
-18 0 -20 -7 -21 -57z"/>
<path d="M2201 678 c-16 -43 -64 -173 -86 -235 l-22 -63 23 0 c17 0 25 9 34
35 l12 35 72 0 72 0 9 -32 c7 -24 17 -34 34 -36 16 -3 22 0 19 10 -93 265
-112 308 -135 308 -15 0 -26 -8 -32 -22z m57 -105 c32 -90 34 -86 -26 -87 -28
-1 -52 1 -52 3 0 15 45 141 51 141 3 0 16 -26 27 -57z"/>
<path d="M1073 200 c0 -36 2 -53 4 -38 2 14 19 43 38 62 18 20 30 36 26 36 -4
0 -18 -12 -32 -26 l-24 -26 -6 29 c-4 17 -7 4 -6 -37z"/>
<path d="M1199 248 c-5 -58 -4 -100 3 -104 4 -3 8 22 8 55 0 34 -2 61 -5 61
-3 0 -5 -6 -6 -12z"/>
<path d="M1260 258 c0 -15 43 -118 49 -118 4 0 16 23 27 52 10 29 21 57 23 62
2 5 -1 6 -7 2 -6 -4 -17 -25 -23 -46 -7 -22 -16 -40 -20 -40 -4 0 -13 17 -19
38 -11 33 -30 65 -30 50z"/>
<path d="M1413 200 c0 -36 2 -50 4 -32 2 17 2 47 0 65 -2 17 -4 3 -4 -33z"/>
<path d="M1482 248 c-20 -20 -14 -33 23 -51 19 -9 35 -21 35 -27 0 -16 -30
-24 -43 -11 -17 17 -31 13 -17 -4 19 -23 57 -19 66 7 7 22 -16 48 -42 48 -6 0
-15 7 -18 15 -8 21 22 31 45 16 11 -6 19 -7 19 -2 0 20 -50 27 -68 9z"/>
<path d="M1612 253 c13 -3 18 -18 21 -61 l3 -57 2 57 c2 44 6 58 20 61 9 3 -1
5 -23 5 -22 0 -32 -2 -23 -5z"/>
<path d="M1738 246 c-23 -17 -23 -68 0 -89 41 -37 107 -2 97 51 -8 47 -59 67
-97 38z m79 -26 c10 -20 10 -29 -1 -45 -28 -43 -90 -19 -83 32 6 48 62 57 84
13z"/>
<path d="M1110 165 c13 -14 26 -23 28 -20 7 7 -29 45 -41 45 -6 0 0 -11 13
-25z"/>
<path d="M543 173 c59 -2 154 -2 210 0 56 1 8 3 -108 3 -115 0 -161 -2 -102
-3z"/>
<path d="M2153 173 c59 -2 154 -2 210 0 56 1 8 3 -108 3 -115 0 -161 -2 -102
-3z"/>
</g>
</svg>
